<svg id="Layer_1" data-name="Layer 1" xmlns="http://www.w3.org/2000/svg" viewBox="0 0 796.857 98.529"><defs><style>.cls-1{fill:#4e007c;}</style></defs><title>Logo Magicdidac</title><path class="cls-1" d="M135.536,514.7l-22.684-29.086v57.754H94.9V448.732h11.412l32.008,43.7,28.086-43.7H177.4v94.633H159.168V488.812L141.494,514.7Z" transform="translate(-94.899 -446.784)"/><polyline class="cls-1" points="167.973 96.581 186.063 96.581 149.324 1.948 134.016 1.948 97.137 96.581 115.229 96.581 141.252 26.72"/><path class="cls-1" d="M333.428,530.145a26.133,26.133,0,0,1-14.543-4.106,26.717,26.717,0,0,1-9.811-11.829,43.147,43.147,0,0,1-3.479-17.883q0-11.131,4.1-18.857a27.918,27.918,0,0,1,11.064-11.62,31.35,31.35,0,0,1,15.587-3.9,40.245,40.245,0,0,1,7.723.626q3.132.627,8.42,2.157a29.442,29.442,0,0,1,3.757,1.114l5.706-12.943a48.315,48.315,0,0,0-13.221-4.592,65.4,65.4,0,0,0-12.664-1.531,50.381,50.381,0,0,0-25.328,6.4,45.591,45.591,0,0,0-17.605,17.743,51.482,51.482,0,0,0-6.332,25.537,53.492,53.492,0,0,0,5.706,24.772,43.343,43.343,0,0,0,16.352,17.6c7.1,4.313,15.006,6.47,24.563,6.47" transform="translate(-94.899 -446.784)"/><path class="cls-1" d="M363.349,530.145V491.6H328.835v13.916h18.371v24.633" transform="translate(-94.899 -446.784)"/><path class="cls-1" d="M381.439,543.365V448.732h17.952v94.633Z" transform="translate(-94.899 -446.784)"/><path class="cls-1" d="M486.787,452.907l-5.566,12.943-3.48-.975q-5.427-1.669-8.628-2.3a42.3,42.3,0,0,0-7.932-.626,23.027,23.027,0,0,0-13.5,4.175,27.658,27.658,0,0,0-9.4,11.968,45.165,45.165,0,0,0-3.409,18.231,46.8,46.8,0,0,0,2.992,17.048,28.2,28.2,0,0,0,8.7,12.246,21.064,21.064,0,0,0,13.5,4.524A53.943,53.943,0,0,0,480.8,525.83l6.819,13.36a51.454,51.454,0,0,1-12.873,4.454,64.365,64.365,0,0,1-13.708,1.669q-14.336,0-24.493-6.4a40.259,40.259,0,0,1-15.309-17.466,58.528,58.528,0,0,1-5.148-24.98,56.808,56.808,0,0,1,5.636-25.745,42.326,42.326,0,0,1,16-17.605,45.143,45.143,0,0,1,24.007-6.332,60.9,60.9,0,0,1,12.246,1.531A46.461,46.461,0,0,1,486.787,452.907Z" transform="translate(-94.899 -446.784)"/><path class="cls-1" d="M537.443,543.365h-35.9V448.732h35.9q14.333,0,24.145,5.915A36.409,36.409,0,0,1,576.2,471.068q4.8,10.51,4.8,24.424,0,22.408-11.342,35T537.443,543.365Zm.7-79.324H519.49V528.2h17.675q11.967,0,18.578-7.863t6.611-24.841q0-15.167-5.985-23.31T538.139,464.041Z" transform="translate(-94.899 -446.784)"/><path class="cls-1" d="M597.7,543.365V448.732h17.952v94.633Z" transform="translate(-94.899 -446.784)"/><path class="cls-1" d="M639.312,448.732h35.9q14.331,0,24.144,5.915a36.417,36.417,0,0,1,14.614,16.421q4.8,10.51,4.8,24.424,0,22.408-11.341,35t-32.217,12.873h-35.9V448.732M657.264,528.2h17.674q11.967,0,18.579-7.863t6.61-24.841q0-15.167-5.984-23.31t-18.231-8.141H657.264" transform="translate(-94.899 -446.784)"/><polyline class="cls-1" points="700.973 96.581 719.063 96.581 682.324 1.948 667.016 1.948 630.137 96.581 648.229 96.581 674.252 26.72"/><path class="cls-1" d="M890.922,452.907l-5.567,12.943-3.479-.975q-5.427-1.669-8.628-2.3a42.312,42.312,0,0,0-7.933-.626,23.032,23.032,0,0,0-13.5,4.175,27.657,27.657,0,0,0-9.394,11.968,45.148,45.148,0,0,0-3.409,18.231,46.8,46.8,0,0,0,2.992,17.048,28.192,28.192,0,0,0,8.7,12.246,21.064,21.064,0,0,0,13.5,4.524,53.95,53.95,0,0,0,20.736-4.315l6.819,13.36a51.482,51.482,0,0,1-12.873,4.454,64.365,64.365,0,0,1-13.708,1.669q-14.336,0-24.493-6.4a40.259,40.259,0,0,1-15.309-17.466,58.513,58.513,0,0,1-5.148-24.98,56.808,56.808,0,0,1,5.635-25.745,42.335,42.335,0,0,1,16-17.605,45.138,45.138,0,0,1,24.007-6.332,60.9,60.9,0,0,1,12.246,1.531A46.472,46.472,0,0,1,890.922,452.907Z" transform="translate(-94.899 -446.784)"/></svg>