<svg id="Layer_1" data-name="Layer 1" xmlns="http://www.w3.org/2000/svg" viewBox="0 0 796.86 98.53"><defs><style>.cls-1{fill:#fff;}</style></defs><title>largelogo_white</title><path class="cls-1" d="M135.54,514.7l-22.69-29.09v57.76H94.9V448.73h11.41l32,43.7,28.08-43.7h11v94.64H159.17V488.81L141.49,514.7Z" transform="translate(-94.9 -446.78)"/><polyline class="cls-1" points="167.97 96.58 186.06 96.58 149.32 1.95 134.02 1.95 97.14 96.58 115.23 96.58 141.25 26.72"/><path class="cls-1" d="M333.43,530.14a26.08,26.08,0,0,1-14.54-4.1,26.73,26.73,0,0,1-9.82-11.83,43.15,43.15,0,0,1-3.48-17.88q0-11.13,4.11-18.86a27.94,27.94,0,0,1,11.06-11.62,31.35,31.35,0,0,1,15.59-3.9,39.89,39.89,0,0,1,7.72.63q3.14.63,8.42,2.16a27.73,27.73,0,0,1,3.76,1.11L362,452.91a48.6,48.6,0,0,0-13.22-4.6,65.45,65.45,0,0,0-12.67-1.53,50.38,50.38,0,0,0-25.33,6.41,45.54,45.54,0,0,0-17.6,17.74,51.49,51.49,0,0,0-6.33,25.54,53.55,53.55,0,0,0,5.7,24.77,43.36,43.36,0,0,0,16.36,17.6c7.09,4.32,15,6.47,24.56,6.47" transform="translate(-94.9 -446.78)"/><polyline class="cls-1" points="268.45 83.36 268.45 44.81 233.94 44.81 233.94 58.73 252.31 58.73 252.31 83.36"/><path class="cls-1" d="M381.44,543.37V448.73h17.95v94.64Z" transform="translate(-94.9 -446.78)"/><path class="cls-1" d="M486.79,452.91l-5.57,12.94-3.48-1a88.46,88.46,0,0,0-8.63-2.3,42,42,0,0,0-7.93-.63,23,23,0,0,0-13.5,4.18,27.59,27.59,0,0,0-9.39,12,45,45,0,0,0-3.41,18.23,46.75,46.75,0,0,0,3,17.05,28.14,28.14,0,0,0,8.7,12.24,21,21,0,0,0,13.5,4.52,53.88,53.88,0,0,0,20.73-4.31l6.82,13.36a51.28,51.28,0,0,1-12.87,4.45A64,64,0,0,1,461,545.31q-14.34,0-24.49-6.4a40.2,40.2,0,0,1-15.31-17.46,58.57,58.57,0,0,1-5.15-25,56.8,56.8,0,0,1,5.64-25.75,42.29,42.29,0,0,1,16-17.6,45.14,45.14,0,0,1,24-6.34A60.8,60.8,0,0,1,474,448.31,46.64,46.64,0,0,1,486.79,452.91Z" transform="translate(-94.9 -446.78)"/><path class="cls-1" d="M537.44,543.37h-35.9V448.73h35.9q14.34,0,24.15,5.92a36.35,36.35,0,0,1,14.61,16.42q4.8,10.5,4.8,24.42,0,22.41-11.34,35T537.44,543.37Zm.7-79.33H519.49V528.2h17.68q12,0,18.57-7.87t6.61-24.84q0-15.17-6-23.31T538.14,464Z" transform="translate(-94.9 -446.78)"/><path class="cls-1" d="M597.7,543.37V448.73h17.95v94.64Z" transform="translate(-94.9 -446.78)"/><path class="cls-1" d="M639.31,448.73h35.91q14.32,0,24.14,5.92A36.35,36.35,0,0,1,714,471.07q4.8,10.5,4.81,24.42,0,22.41-11.35,35t-32.21,12.88H639.31V448.73m18,79.47h17.68q12,0,18.58-7.87t6.61-24.84q0-15.17-6-23.31T675.91,464H657.26" transform="translate(-94.9 -446.78)"/><polyline class="cls-1" points="700.97 96.58 719.06 96.58 682.32 1.95 667.02 1.95 630.14 96.58 648.23 96.58 674.25 26.72"/><path class="cls-1" d="M890.92,452.91l-5.56,12.94-3.48-1a89.22,89.22,0,0,0-8.63-2.3,42,42,0,0,0-7.93-.63,23,23,0,0,0-13.5,4.18,27.61,27.61,0,0,0-9.4,12A45.2,45.2,0,0,0,839,496.33a47,47,0,0,0,3,17.05,28.3,28.3,0,0,0,8.7,12.24,21.05,21.05,0,0,0,13.5,4.52,53.89,53.89,0,0,0,20.74-4.31l6.82,13.36a51.22,51.22,0,0,1-12.88,4.45,63.81,63.81,0,0,1-13.7,1.67q-14.34,0-24.5-6.4a40.32,40.32,0,0,1-15.31-17.46,58.57,58.57,0,0,1-5.14-25,56.8,56.8,0,0,1,5.63-25.75,42.31,42.31,0,0,1,16-17.6,45.13,45.13,0,0,1,24-6.34,61,61,0,0,1,12.25,1.53A46.69,46.69,0,0,1,890.92,452.91Z" transform="translate(-94.9 -446.78)"/></svg>